<?xml version="1.0" encoding="UTF-8"?>
<svg id="Layer_2" data-name="Layer 2" xmlns="http://www.w3.org/2000/svg" viewBox="0 0 707.8 178.31">
  <defs>
    <style>
      .cls-1 {
        fill: #3ac3f2;
      }

      .cls-2 {
        fill: #fff;
      }

      .cls-3 {
        fill: #62c196;
      }

      .cls-4 {
        fill: #f36c21;
      }
    </style>
  </defs>
  <g id="Layer_1-2" data-name="Layer 1">
    <g>
      <path class="cls-2" d="m26.98,64.54v45.72c0,3.1.72,5.32,2.17,6.67,1.45,1.35,3.92,2.02,7.42,2.02h10.49v14.24h-13.49c-7.69,0-13.59-1.8-17.69-5.39-4.1-3.6-6.15-9.45-6.15-17.54v-45.72H0v-13.94h9.74v-20.54h17.24v20.54h20.08v13.94h-20.08Z"/>
      <path class="cls-2" d="m137.89,98.27h-63.1c.5,6.59,2.95,11.89,7.35,15.89,4.4,4,9.79,6,16.19,6,9.19,0,15.69-3.85,19.49-11.54h18.44c-2.5,7.59-7.02,13.81-13.56,18.66-6.55,4.85-14.67,7.27-24.36,7.27-7.89,0-14.96-1.77-21.21-5.32-6.25-3.54-11.14-8.54-14.69-14.99-3.55-6.45-5.32-13.91-5.32-22.41s1.72-15.96,5.17-22.41c3.45-6.45,8.29-11.41,14.54-14.91,6.24-3.49,13.42-5.24,21.51-5.24s14.74,1.7,20.83,5.1c6.09,3.4,10.84,8.17,14.24,14.31,3.4,6.15,5.1,13.22,5.1,21.21,0,3.1-.2,5.9-.6,8.39m-17.24-13.79c-.1-6.29-2.35-11.34-6.75-15.14-4.4-3.8-9.84-5.7-16.34-5.7-5.9,0-10.94,1.87-15.14,5.62-4.2,3.75-6.7,8.82-7.49,15.21h45.72Z"/>
      <path class="cls-2" d="m344.86,53.3c5.14,2.7,9.17,6.7,12.07,11.99,2.9,5.3,4.35,11.69,4.35,19.19v48.71h-16.94v-46.16c0-7.4-1.85-13.07-5.55-17.01-3.7-3.95-8.75-5.92-15.14-5.92s-11.47,1.97-15.21,5.92c-3.75,3.95-5.62,9.62-5.62,17.01v46.16h-17.09V50.6h17.09v9.44c2.79-3.39,6.37-6.04,10.72-7.94,4.35-1.9,8.97-2.85,13.87-2.85,6.49,0,12.31,1.35,17.46,4.05"/>
      <path class="cls-2" d="m397.69,129.22c-6.3-3.54-11.24-8.54-14.84-14.99-3.6-6.45-5.39-13.91-5.39-22.41s1.85-15.84,5.55-22.33c3.7-6.49,8.74-11.49,15.14-14.99,6.39-3.49,13.54-5.25,21.43-5.25s15.04,1.75,21.43,5.25c6.39,3.5,11.44,8.49,15.14,14.99,3.7,6.5,5.55,13.94,5.55,22.33s-1.9,15.84-5.7,22.33c-3.8,6.5-8.97,11.52-15.51,15.06-6.55,3.55-13.77,5.32-21.66,5.32s-14.84-1.77-21.13-5.32m33.5-12.67c3.84-2.1,6.97-5.25,9.37-9.44,2.4-4.2,3.6-9.29,3.6-15.29s-1.15-11.07-3.45-15.21c-2.3-4.15-5.35-7.27-9.14-9.37-3.8-2.1-7.89-3.15-12.29-3.15s-8.47,1.05-12.22,3.15c-3.75,2.1-6.72,5.22-8.92,9.37-2.2,4.15-3.3,9.22-3.3,15.21,0,8.9,2.27,15.77,6.82,20.61,4.55,4.85,10.27,7.27,17.16,7.27,4.4,0,8.52-1.05,12.37-3.15"/>
      <path class="cls-2" d="m553.72,98.27h-63.1c.5,6.59,2.95,11.89,7.34,15.89,4.4,4,9.79,6,16.19,6,9.19,0,15.69-3.85,19.48-11.54h18.44c-2.5,7.59-7.02,13.81-13.57,18.66-6.55,4.85-14.67,7.27-24.36,7.27-7.9,0-14.97-1.77-21.21-5.32-6.25-3.54-11.14-8.54-14.69-14.99-3.55-6.45-5.32-13.91-5.32-22.41s1.72-15.96,5.17-22.41c3.45-6.45,8.29-11.41,14.54-14.91,6.24-3.49,13.41-5.24,21.51-5.24s14.74,1.7,20.83,5.1c6.09,3.4,10.84,8.17,14.24,14.31,3.4,6.15,5.1,13.22,5.1,21.21,0,3.1-.2,5.9-.6,8.39m-17.24-13.79c-.1-6.29-2.35-11.34-6.74-15.14-4.4-3.8-9.84-5.7-16.34-5.7-5.9,0-10.94,1.87-15.14,5.62-4.2,3.75-6.7,8.82-7.49,15.21h45.72Z"/>
      <path class="cls-2" d="m598.16,52.78c4.15-2.35,9.07-3.52,14.76-3.52v17.69h-4.35c-6.69,0-11.77,1.7-15.21,5.1-3.45,3.4-5.17,9.29-5.17,17.69v43.47h-17.09V50.6h17.09v11.99c2.5-4.2,5.82-7.47,9.97-9.82"/>
      <path class="cls-2" d="m628.14,69.49c3.45-6.39,8.14-11.37,14.09-14.91,5.94-3.54,12.51-5.32,19.71-5.32,6.49,0,12.16,1.27,17.01,3.82,4.85,2.55,8.72,5.72,11.62,9.52v-11.99h17.24v82.59h-17.24v-12.29c-2.9,3.9-6.85,7.15-11.84,9.74-5,2.6-10.69,3.9-17.09,3.9-7.1,0-13.59-1.82-19.49-5.47-5.9-3.65-10.57-8.74-14.01-15.29-3.45-6.54-5.17-13.96-5.17-22.26s1.72-15.64,5.17-22.03m58.91,7.49c-2.35-4.2-5.42-7.39-9.22-9.59-3.8-2.2-7.89-3.3-12.29-3.3s-8.49,1.08-12.29,3.22c-3.8,2.15-6.87,5.3-9.22,9.44-2.35,4.15-3.52,9.07-3.52,14.76s1.17,10.69,3.52,14.99c2.35,4.3,5.44,7.57,9.29,9.82,3.85,2.25,7.92,3.37,12.22,3.37s8.49-1.1,12.29-3.3c3.8-2.2,6.87-5.42,9.22-9.67,2.35-4.24,3.52-9.22,3.52-14.91s-1.17-10.64-3.52-14.84"/>
      <path class="cls-3" d="m154.89,112.73c-2.16,0-4.31-.9-5.84-2.66-2.8-3.22-2.45-8.1.77-10.9,3.2-2.78,78.72-68.08,118.74-78.67,4.13-1.09,8.36,1.37,9.45,5.49,1.09,4.13-1.37,8.36-5.49,9.45-14.88,3.94-38.96,18.13-69.63,41.03-23.58,17.61-42.74,34.21-42.93,34.37-1.46,1.27-3.27,1.89-5.06,1.89"/>
      <path class="cls-1" d="m197.8,178.31c-3.67,0-6.92-2.62-7.6-6.36-.75-4.17-18.2-102.47-6.83-142.27,1.17-4.1,5.45-6.48,9.55-5.31,4.1,1.17,6.48,5.45,5.31,9.55-4.23,14.8-4.36,42.75-.38,80.82,3.06,29.27,7.52,54.23,7.56,54.48.75,4.2-2.04,8.22-6.24,8.97-.46.08-.92.12-1.38.12"/>
      <path class="cls-2" d="m151.18,167.67c-2.16,0-4.31-.9-5.84-2.66-2.8-3.22-2.45-8.1.77-10.9,3.2-2.78,78.72-68.08,118.74-78.68,4.13-1.09,8.36,1.37,9.45,5.49,1.09,4.12-1.37,8.35-5.49,9.45-14.88,3.94-38.96,18.13-69.63,41.03-23.58,17.61-42.74,34.21-42.93,34.37-1.46,1.27-3.27,1.89-5.06,1.89"/>
      <path class="cls-4" d="m237.38,154.24c-3.67,0-6.92-2.62-7.6-6.36-.75-4.17-18.2-102.47-6.83-142.27,1.17-4.1,5.44-6.48,9.55-5.31,4.1,1.17,6.48,5.45,5.31,9.55-4.23,14.8-4.36,42.75-.38,80.82,3.06,29.27,7.52,54.23,7.56,54.48.75,4.2-2.04,8.22-6.24,8.97-.46.08-.92.12-1.38.12"/>
    </g>
  </g>
</svg>